<svg width="23" height="23" viewBox="0 0 23 23" fill="none" xmlns="http://www.w3.org/2000/svg">
<path d="M11.5013 9.88367e-07C5.1468 -0.00263844 0 5.2815 0 11.8035C0 16.961 3.21964 21.3451 7.7035 22.9551C8.30734 23.1109 8.21484 22.6701 8.21484 22.3692V20.3236C4.72796 20.7433 4.58664 18.3731 4.35281 17.9772C3.88001 17.1484 2.76226 16.9372 3.0963 16.5413C3.89029 16.1216 4.6997 16.6469 5.63758 18.0695C6.31594 19.1016 7.63926 18.9274 8.30991 18.7558C8.45637 18.1355 8.76986 17.5812 9.20154 17.151C5.58876 16.4859 4.08301 14.2213 4.08301 11.529C4.08301 10.2225 4.50184 9.02158 5.3241 8.0529C4.79991 6.45605 5.37292 5.08882 5.45001 4.88559C6.94291 4.74834 8.49492 5.98359 8.61569 6.08125C9.46364 5.84634 10.4324 5.72229 11.5167 5.72229C12.6062 5.72229 13.5775 5.85162 14.4331 6.08917C14.7235 5.86218 16.1624 4.80113 17.55 4.93046C17.6245 5.13369 18.1847 6.46925 17.6913 8.04499C18.5239 9.0163 18.9478 10.2278 18.9478 11.537C18.9478 14.2345 17.4318 16.5017 13.8087 17.1563C14.1191 17.4698 14.3655 17.8436 14.5336 18.256C14.7016 18.6684 14.7881 19.1111 14.7877 19.5582V22.5275C14.8083 22.7651 14.7877 23 15.1732 23C19.7238 21.4243 23 17.0085 23 11.8062C23 5.2815 17.8506 9.88367e-07 11.5013 9.88367e-07Z" fill="#AAAAAA"/>
</svg>
